<?xml version="1.0" standalone="no"?>
<!DOCTYPE svg PUBLIC "-//W3C//DTD SVG 20010904//EN"
 "http://www.w3.org/TR/2001/REC-SVG-20010904/DTD/svg10.dtd">
<svg version="1.0" xmlns="http://www.w3.org/2000/svg"
 width="436.000000pt" height="436.000000pt" viewBox="0 0 436.000000 436.000000"
 preserveAspectRatio="xMidYMid meet">
<metadata>
Created by potrace 1.14, written by Peter Selinger 2001-2017
</metadata>
<g transform="translate(0.000000,436.000000) scale(0.100000,-0.100000)"
fill="#000000" stroke="none">
<path d="M1937 3563 c-2 -2 -28 -5 -58 -8 -30 -3 -70 -10 -89 -15 -19 -5 -46
-11 -60 -14 -37 -7 -151 -42 -185 -57 -16 -7 -32 -13 -35 -14 -16 -4 -133 -63
-175 -89 -47 -28 -140 -94 -175 -124 -61 -52 -149 -141 -159 -159 -10 -20 -7
-24 58 -55 39 -18 70 -36 70 -41 1 -7 -37 -54 -70 -86 -33 -32 -145 -190 -137
-195 66 -38 182 -66 262 -62 61 2 161 30 171 47 4 5 15 9 25 9 10 0 20 3 22 8
4 9 65 52 73 52 4 0 12 6 19 13 7 6 27 23 45 37 18 14 47 37 64 53 83 71 146
116 151 108 4 -5 2 -12 -3 -15 -7 -5 -23 -61 -26 -91 0 -5 -3 -14 -5 -20 -6
-12 -3 -127 4 -174 3 -19 11 -40 17 -47 6 -8 8 -14 4 -14 -8 0 51 -108 70
-127 7 -7 15 -16 17 -21 5 -14 109 -92 152 -115 l41 -21 -35 -6 c-46 -8 -291
-4 -355 5 -27 3 -57 11 -67 16 -10 5 -18 8 -18 5 0 -3 -15 0 -32 5 -18 6 -37
12 -43 13 -5 2 -17 6 -25 9 -8 3 -42 15 -75 27 -62 22 -171 76 -238 118 -35
21 -37 21 -28 3 6 -10 50 -59 98 -108 146 -148 291 -245 498 -333 91 -38 250
-78 385 -96 144 -19 390 -6 513 27 23 6 52 13 64 15 77 14 268 96 383 165 79
48 234 179 304 257 16 18 16 23 4 34 -22 20 -95 58 -112 58 -27 0 -18 23 27
70 43 45 118 141 150 192 13 20 14 28 4 36 -21 17 -127 54 -165 57 -21 2 -39
4 -42 5 -8 3 -63 1 -90 -3 -37 -5 -123 -38 -142 -55 -10 -8 -18 -12 -18 -8 0
4 -25 -12 -55 -34 -30 -22 -58 -40 -64 -40 -5 0 -11 -4 -13 -9 -5 -15 -217
-181 -230 -181 -4 0 -1 17 7 38 34 86 37 172 11 297 -5 26 -42 105 -48 105 -5
0 -8 6 -8 13 0 24 -109 124 -172 157 -79 43 -69 47 122 48 135 0 215 -10 345
-44 11 -3 25 -6 30 -8 65 -16 216 -85 325 -147 50 -29 53 -29 34 -8 -12 13
-34 39 -50 58 -98 114 -257 237 -418 321 -88 46 -260 111 -326 124 -14 2 -45
9 -70 14 -25 6 -63 14 -85 17 -40 8 -362 14 -368 8z"/>
<path d="M1008 1692 c-54 -3 -71 -13 -48 -27 6 -4 10 -80 10 -195 0 -174 -2
-191 -19 -207 -19 -17 -16 -18 72 -17 51 1 108 7 128 14 43 16 77 65 73 105
-6 59 -15 75 -54 100 l-40 26 25 22 c33 28 40 90 13 129 -23 34 -87 54 -160
50z m102 -42 c17 -15 24 -33 26 -65 2 -38 -2 -50 -24 -70 -15 -14 -33 -25 -41
-25 -21 0 -4 -13 22 -17 89 -13 116 -150 37 -190 -14 -7 -46 -13 -72 -13 l-48
0 0 200 0 200 38 0 c25 0 48 -7 62 -20z"/>
<path d="M1309 1686 c11 -4 21 -16 23 -25 3 -9 4 -101 3 -204 0 -154 -3 -190
-15 -197 -19 -12 -18 -12 115 -14 l110 -1 17 30 c24 42 22 63 -2 32 -24 -31
-59 -42 -125 -42 l-50 0 -3 97 -3 97 74 -4 c72 -4 73 -4 73 20 0 20 -3 22 -14
12 -8 -6 -41 -12 -73 -12 -53 -1 -59 0 -60 19 -1 12 0 26 1 31 1 6 3 42 3 80
l2 70 68 -2 c37 -1 74 -6 81 -12 16 -13 25 -5 19 17 -3 15 -20 17 -134 17 -81
0 -122 -3 -110 -9z"/>
<path d="M2014 1689 c-2 -4 3 -12 11 -19 12 -10 15 -43 15 -171 0 -88 -2 -159
-5 -159 -3 0 -17 12 -31 28 -14 15 -70 75 -126 134 -55 59 -116 126 -137 148
-20 22 -42 40 -49 40 -7 0 -10 -4 -7 -10 3 -5 6 -98 5 -207 0 -186 -1 -199
-20 -213 -19 -14 -17 -15 30 -15 55 -1 56 0 36 20 -8 9 -14 37 -15 70 0 31 -3
60 -6 65 -3 6 -3 10 2 10 4 0 7 40 6 89 -2 51 2 93 7 96 6 3 10 2 10 -3 0 -5
33 -43 73 -84 39 -41 113 -119 164 -173 l91 -98 -1 208 c-2 199 -1 208 19 229
l22 21 -45 0 c-25 0 -47 -3 -49 -6z"/>
<path d="M2208 1689 l-23 -5 22 -8 c21 -7 21 -11 22 -199 1 -106 -2 -197 -6
-203 -5 -6 -16 -15 -26 -20 -13 -7 -1 -10 43 -10 59 1 75 8 45 20 -13 4 -15
36 -15 200 0 119 4 197 10 201 36 22 -14 39 -72 24z"/>
<path d="M2533 1688 c-2 -5 -9 -6 -14 -3 -5 4 -9 1 -9 -4 0 -6 -7 -11 -15 -11
-30 0 -91 -76 -103 -130 -16 -67 -15 -86 4 -151 28 -94 110 -152 214 -151 70
0 101 13 144 56 25 26 35 47 38 78 6 58 3 58 -17 -1 -24 -73 -93 -120 -172
-115 -68 4 -119 38 -148 99 -42 90 -27 213 34 274 34 34 113 66 126 52 3 -3
14 -6 23 -6 9 -1 26 -2 37 -3 22 -2 75 -44 75 -59 0 -5 6 -18 14 -29 13 -17
14 -15 6 20 -5 22 -8 44 -7 49 1 5 -20 17 -47 28 -50 20 -172 24 -183 7z"/>
<path d="M3035 1693 c-105 -24 -167 -106 -166 -223 0 -84 22 -132 82 -184 24
-20 45 -34 47 -31 3 2 13 0 24 -6 31 -17 119 -14 158 5 68 33 88 58 95 117 l5
44 -14 -39 c-8 -21 -29 -54 -47 -72 -29 -30 -61 -42 -134 -49 -23 -2 -100 38
-122 63 -68 80 -62 244 13 319 18 18 114 56 114 45 0 -4 15 -7 34 -6 43 2 97
-33 120 -78 l17 -33 -7 45 c-8 58 -6 55 -61 74 -44 15 -114 19 -158 9z"/>
<path d="M3380 1684 c0 -7 5 -14 11 -16 15 -5 15 -368 0 -396 -15 -28 -16 -28
29 -27 25 0 40 5 40 13 0 6 -4 12 -8 12 -10 0 -15 221 -7 340 1 25 3 50 4 57
0 6 9 14 19 16 17 5 14 5 -60 11 -16 1 -28 -3 -28 -10z"/>
<path d="M1578 1043 c6 -2 18 -2 25 0 6 3 1 5 -13 5 -14 0 -19 -2 -12 -5z"/>
<path d="M2088 1024 c-7 -12 -2 -110 7 -123 3 -6 14 -10 23 -10 15 1 16 2 0 6
-11 3 -17 18 -20 49 -2 25 0 48 4 52 4 4 3 13 -1 21 -5 7 -11 9 -13 5z"/>
<path d="M1880 1000 c18 -12 30 -13 30 -2 0 4 -10 9 -22 9 -18 2 -20 0 -8 -7z"/>
<path d="M2500 1000 c18 -12 30 -13 30 -2 0 4 -10 9 -22 9 -18 2 -20 0 -8 -7z"/>
<path d="M1833 993 c-7 -2 -13 -14 -12 -26 0 -15 2 -17 6 -7 3 8 12 21 21 28
16 12 8 15 -15 5z"/>
<path d="M2460 990 c-9 -6 -10 -10 -3 -10 6 0 15 5 18 10 8 12 4 12 -15 0z"/>
<path d="M1929 963 c-1 -5 -1 -15 0 -24 2 -17 -13 -32 -42 -42 -12 -5 -26 2
-43 20 -15 16 -24 21 -24 12 0 -22 51 -48 75 -39 29 11 44 32 42 58 -1 22 -6
29 -8 15z"/>
<path d="M2442 950 c0 -14 2 -19 5 -12 2 6 2 18 0 25 -3 6 -5 1 -5 -13z"/>
<path d="M2694 944 c-18 -15 -18 -15 2 -5 12 6 25 7 29 3 5 -4 5 -1 1 6 -9 15
-8 15 -32 -4z"/>
<path d="M2740 956 c0 -2 7 -6 15 -10 8 -3 15 -1 15 4 0 6 -7 10 -15 10 -8 0
-15 -2 -15 -4z"/>
<path d="M2283 925 c0 -8 4 -12 9 -9 5 3 6 10 3 15 -9 13 -12 11 -12 -6z"/>
<path d="M1530 921 c0 -6 4 -13 10 -16 6 -3 7 1 4 9 -7 18 -14 21 -14 7z"/>
<path d="M1631 910 c-13 -11 -19 -20 -14 -20 6 0 18 9 28 20 23 25 17 25 -14
0z"/>
<path d="M2754 912 c-9 -14 -8 -18 6 -18 11 0 15 6 12 18 -2 10 -5 18 -6 18
-1 0 -6 -8 -12 -18z"/>
<path d="M2515 900 c-16 -7 -17 -9 -3 -9 9 -1 20 4 23 9 7 11 7 11 -20 0z"/>
<path d="M2698 893 c6 -2 18 -2 25 0 6 3 1 5 -13 5 -14 0 -19 -2 -12 -5z"/>
</g>
</svg>
